<?xml version="1.0" standalone="no"?>
<!DOCTYPE svg PUBLIC "-//W3C//DTD SVG 20010904//EN"
 "http://www.w3.org/TR/2001/REC-SVG-20010904/DTD/svg10.dtd">
<svg version="1.0" xmlns="http://www.w3.org/2000/svg"
 width="165.000000pt" height="175.000000pt" viewBox="0 0 165.000000 175.000000"
 preserveAspectRatio="xMidYMid meet">

<g transform="translate(0.000000,175.000000) scale(0.100000,-0.100000)"
fill="#000000" stroke="none">
<path d="M620 1647 c-91 -31 -145 -76 -171 -143 -6 -16 -19 -78 -30 -137 -11
-60 -33 -151 -50 -203 -16 -52 -27 -99 -23 -106 4 -7 3 -8 -4 -4 -23 14 -12
-54 17 -112 40 -79 86 -135 156 -187 63 -47 173 -98 238 -110 20 -4 37 -13 37
-20 0 -41 -72 -221 -111 -277 -11 -14 -19 -30 -19 -36 0 -5 37 -21 83 -35 58
-19 114 -47 192 -98 176 -115 305 -151 412 -115 70 23 96 56 133 165 17 52 62
150 99 218 l69 124 1 83 c1 76 -1 86 -27 122 -34 46 -120 95 -207 118 -33 8
-138 29 -234 46 -262 47 -369 85 -498 176 -57 41 -153 144 -153 165 0 4 8 12
18 17 55 29 193 19 283 -19 60 -26 147 -116 223 -231 l58 -87 67 58 c37 31 97
77 134 100 37 24 67 48 67 53 0 42 -131 236 -221 326 -141 143 -371 207 -539
149z m100 -6 c0 -11 -49 -21 -55 -10 -5 6 4 10 48 18 4 0 7 -3 7 -8z m30 -1
c0 -5 -4 -10 -10 -10 -5 0 -10 5 -10 10 0 6 5 10 10 10 6 0 10 -4 10 -10z m40
0 c0 -5 -4 -10 -10 -10 -5 0 -10 5 -10 10 0 6 5 10 10 10 6 0 10 -4 10 -10z
m-140 -10 c0 -5 -4 -10 -10 -10 -5 0 -10 5 -10 10 0 6 5 10 10 10 6 0 10 -4
10 -10z m180 0 c0 -5 -7 -7 -15 -4 -8 4 -15 8 -15 10 0 2 7 4 15 4 8 0 15 -4
15 -10z m41 -3 c-1 -12 -15 -9 -19 4 -3 6 1 10 8 8 6 -3 11 -8 11 -12z m-261
-7 c0 -5 -4 -10 -10 -10 -5 0 -10 5 -10 10 0 6 5 10 10 10 6 0 10 -4 10 -10z
m306 -4 c3 -8 13 -12 25 -9 10 3 19 0 19 -6 0 -7 -10 -10 -25 -7 -30 6 -45 14
-45 27 0 14 20 11 26 -5z m-64 -18 c35 -10 39 -14 33 -37 -3 -14 -23 -60 -43
-101 l-37 -75 -45 3 c-25 1 -56 4 -70 6 -14 2 -47 0 -73 -4 -36 -5 -47 -4 -47
6 0 8 16 56 37 108 34 89 38 95 67 99 67 8 141 6 178 -5z m156 -17 c1 -1 4 0
5 2 8 5 36 -26 32 -34 -6 -9 -75 20 -75 32 0 6 18 6 38 0z m-418 -15 c0 -2 -9
-24 -20 -49 -24 -54 -46 -66 -53 -29 -4 20 2 33 25 54 26 25 48 36 48 24z
m421 -45 c41 -27 94 -69 118 -94 l44 -46 -34 -28 c-18 -15 -55 -47 -82 -70
-26 -24 -50 -43 -53 -43 -3 0 -16 13 -29 28 -13 16 -51 43 -84 61 -34 18 -61
35 -61 39 0 4 8 21 18 37 10 17 31 60 47 98 15 37 31 67 35 67 4 0 41 -22 81
-49z m69 9 c0 -5 -4 -10 -10 -10 -5 0 -10 5 -10 10 0 6 5 10 10 10 6 0 10 -4
10 -10z m35 -31 c-3 -4 -12 -6 -20 -3 -8 4 -13 10 -10 15 3 4 12 6 20 3 8 -4
13 -10 10 -15z m55 -57 c-11 -4 -50 34 -43 42 3 3 16 -5 29 -17 13 -12 19 -23
14 -25z m-633 -33 c-5 -36 -34 -75 -47 -63 -2 3 0 8 5 12 14 10 36 73 29 83
-3 5 0 9 7 9 8 0 10 -13 6 -41z m663 11 c0 -13 -11 -13 -30 0 -12 8 -11 10 8
10 12 0 22 -4 22 -10z m24 -41 c-3 -5 -10 -7 -15 -3 -5 3 -7 10 -3 15 3 5 10
7 15 3 5 -3 7 -10 3 -15z m-584 -19 c0 -5 -4 -10 -10 -10 -5 0 -10 5 -10 10 0
6 5 10 10 10 6 0 10 -4 10 -10z m30 0 c0 -5 -4 -10 -10 -10 -5 0 -10 5 -10 10
0 6 5 10 10 10 6 0 10 -4 10 -10z m30 0 c0 -5 -5 -10 -11 -10 -5 0 -7 5 -4 10
3 6 8 10 11 10 2 0 4 -4 4 -10z m35 0 c3 -5 1 -10 -4 -10 -6 0 -11 5 -11 10 0
6 2 10 4 10 3 0 8 -4 11 -10z m-125 -4 c0 -3 -4 -8 -10 -11 -5 -3 -10 -1 -10
4 0 6 5 11 10 11 6 0 10 -2 10 -4z m160 -17 c0 -11 -4 -17 -10 -14 -5 3 -10
13 -10 21 0 8 5 14 10 14 6 0 10 -9 10 -21z m480 11 c0 -5 -4 -10 -10 -10 -5
0 -10 5 -10 10 0 6 5 10 10 10 6 0 10 -4 10 -10z m-445 -10 c3 -5 -1 -10 -9
-10 -9 0 -16 5 -16 10 0 6 4 10 9 10 6 0 13 -4 16 -10z m466 -108 c31 -51 48
-87 41 -90 -6 -2 -46 -31 -88 -64 -67 -53 -78 -58 -86 -44 -5 10 -34 53 -63
97 l-53 79 80 70 c96 83 88 85 169 -48z m-436 99 c3 -5 1 -12 -5 -16 -5 -3
-10 1 -10 9 0 18 6 21 15 7z m435 -11 c0 -5 -4 -10 -10 -10 -5 0 -10 5 -10 10
0 6 5 10 10 10 6 0 10 -4 10 -10z m-400 -10 c0 -5 -4 -10 -10 -10 -5 0 -10 5
-10 10 0 6 5 10 10 10 6 0 10 -4 10 -10z m54 -51 c-5 -9 -2 -10 9 -6 11 4 17
1 17 -8 0 -8 7 -15 15 -15 8 0 15 -4 15 -10 0 -18 -15 -10 -61 33 -25 23 -44
47 -42 54 2 7 14 2 29 -12 16 -15 23 -29 18 -36z m-484 31 c11 -20 -7 -100
-22 -100 -4 0 -12 -18 -18 -40 -6 -22 -15 -40 -20 -40 -6 0 -1 24 10 52 11 29
23 74 26 100 4 27 8 48 10 48 2 0 8 -9 14 -20z m850 0 c0 -5 -4 -10 -10 -10
-5 0 -10 5 -10 10 0 6 5 10 10 10 6 0 10 -4 10 -10z m-790 -14 c0 -3 -4 -8
-10 -11 -5 -3 -10 -1 -10 4 0 6 5 11 10 11 6 0 10 -2 10 -4z m810 -16 c0 -5
-4 -10 -10 -10 -5 0 -10 5 -10 10 0 6 5 10 10 10 6 0 10 -4 10 -10z m-749
-125 l48 -50 -30 -104 c-16 -57 -35 -115 -43 -128 l-13 -25 -45 51 c-47 52
-102 153 -87 159 5 2 9 12 9 22 0 37 22 120 30 115 17 -10 42 27 35 53 -6 23
-4 22 21 -9 15 -19 49 -57 75 -84z m-26 85 c3 -5 1 -10 -4 -10 -6 0 -11 5 -11
10 0 6 2 10 4 10 3 0 8 -4 11 -10z m795 0 c0 -5 -2 -10 -4 -10 -3 0 -8 5 -11
10 -3 6 -1 10 4 10 6 0 11 -4 11 -10z m-323 -36 c-9 -9 -28 6 -21 18 4 6 10 6
17 -1 6 -6 8 -13 4 -17z m-447 6 c0 -5 -2 -10 -4 -10 -3 0 -8 5 -11 10 -3 6
-1 10 4 10 6 0 11 -4 11 -10z m790 0 c0 -5 -4 -10 -10 -10 -5 0 -10 5 -10 10
0 6 5 10 10 10 6 0 10 -4 10 -10z m-320 -30 c0 -5 -4 -10 -10 -10 -5 0 -10 5
-10 10 0 6 5 10 10 10 6 0 10 -4 10 -10z m-415 -20 c3 -5 -1 -10 -10 -10 -9 0
-13 5 -10 10 3 6 8 10 10 10 2 0 7 -4 10 -10z m435 -10 c0 -5 -4 -10 -10 -10
-5 0 -10 5 -10 10 0 6 5 10 10 10 6 0 10 -4 10 -10z m-410 -20 c0 -5 -2 -10
-4 -10 -3 0 -8 5 -11 10 -3 6 -1 10 4 10 6 0 11 -4 11 -10z m430 -4 c0 -3 -4
-8 -10 -11 -5 -3 -10 -1 -10 4 0 6 5 11 10 11 6 0 10 -2 10 -4z m-365 -36 c3
-5 1 -10 -4 -10 -6 0 -11 5 -11 10 0 6 2 10 4 10 3 0 8 -4 11 -10z m385 0 c0
-5 -4 -10 -10 -10 -5 0 -10 5 -10 10 0 6 5 10 10 10 6 0 10 -4 10 -10z m-422
-29 c34 -24 187 -101 200 -101 21 0 23 -20 7 -77 -24 -85 -35 -111 -51 -117
-8 -3 -14 -12 -14 -21 0 -22 -28 -19 -112 11 -60 22 -102 43 -137 71 -5 3 72
253 77 253 2 0 16 -8 30 -19z m72 9 c0 -5 -5 -10 -11 -10 -5 0 -7 5 -4 10 3 6
8 10 11 10 2 0 4 -4 4 -10z m370 -10 c0 -5 -4 -10 -10 -10 -5 0 -10 5 -10 10
0 6 5 10 10 10 6 0 10 -4 10 -10z m-340 -20 c0 -5 -2 -10 -4 -10 -3 0 -8 5
-11 10 -3 6 -1 10 4 10 6 0 11 -4 11 -10z m360 -9 c0 -6 -4 -13 -10 -16 -5 -3
-10 1 -10 9 0 9 5 16 10 16 6 0 10 -4 10 -9z m-320 -5 c0 -3 -4 -8 -10 -11 -5
-3 -10 -1 -10 4 0 6 5 11 10 11 6 0 10 -2 10 -4z m35 -16 c3 -5 1 -10 -4 -10
-6 0 -11 5 -11 10 0 6 2 10 4 10 3 0 8 -4 11 -10z m85 -30 c0 -5 -4 -10 -10
-10 -5 0 -10 5 -10 10 0 6 5 10 10 10 6 0 10 -4 10 -10z m50 -20 c0 -5 -4 -10
-9 -10 -6 0 -13 5 -16 10 -3 6 1 10 9 10 9 0 16 -4 16 -10z m50 -10 c0 -5 -4
-10 -9 -10 -6 0 -13 5 -16 10 -3 6 1 10 9 10 9 0 16 -4 16 -10z m47 -16 c-9
-9 -28 6 -21 18 4 6 10 6 17 -1 6 -6 8 -13 4 -17z m57 4 c-3 -4 -12 -8 -20 -8
-8 0 -13 4 -10 8 3 5 12 9 20 9 8 0 13 -4 10 -9z m-11 -44 c62 -9 116 -20 121
-24 8 -8 -28 -139 -56 -209 -6 -14 -10 -30 -9 -36 2 -5 -1 -6 -6 -2 -4 5 -8
14 -8 20 0 17 -131 103 -184 122 -25 8 -60 15 -78 15 -38 0 -38 1 -17 42 9 17
14 39 11 49 -3 11 -2 17 3 14 4 -2 10 8 13 24 l6 29 46 -14 c26 -7 97 -21 158
-30z m47 36 c0 -5 -4 -10 -10 -10 -5 0 -10 5 -10 10 0 6 5 10 10 10 6 0 10 -4
10 -10z m40 -10 c0 -5 -4 -10 -10 -10 -5 0 -10 5 -10 10 0 6 5 10 10 10 6 0
10 -4 10 -10z m44 1 c3 -5 -3 -11 -15 -14 -16 -4 -18 -3 -8 9 13 16 16 17 23
5z m51 -11 c3 -5 -1 -10 -9 -10 -9 0 -16 5 -16 10 0 6 4 10 9 10 6 0 13 -4 16
-10z m45 -10 c0 -5 -4 -10 -10 -10 -5 0 -10 5 -10 10 0 6 5 10 10 10 6 0 10
-4 10 -10z m40 -4 c0 -11 -19 -15 -25 -6 -3 5 1 10 9 10 9 0 16 -2 16 -4z m30
-16 c0 -5 -4 -10 -10 -10 -5 0 -10 5 -10 10 0 6 5 10 10 10 6 0 10 -4 10 -10z
m48 -19 c3 -8 -1 -12 -9 -9 -7 2 -15 10 -17 17 -3 8 1 12 9 9 7 -2 15 -10 17
-17z m-99 -11 c86 -24 138 -49 168 -82 21 -22 22 -25 7 -67 -24 -70 -44 -103
-59 -97 -7 2 -16 -1 -19 -9 -3 -10 0 -12 11 -8 12 5 14 1 8 -18 -4 -13 -12
-27 -16 -30 -20 -12 -128 10 -188 40 -35 17 -67 28 -72 26 -4 -3 -11 0 -15 7
-4 7 -4 10 1 6 6 -6 41 86 90 240 5 15 -3 16 84 -8z m149 -9 c3 -8 -1 -12 -9
-9 -7 2 -15 10 -17 17 -3 8 1 12 9 9 7 -2 15 -10 17 -17z m-978 -21 c0 -5 -4
-10 -10 -10 -5 0 -10 5 -10 10 0 6 5 10 10 10 6 0 10 -4 10 -10z m1010 0 c0
-5 -4 -10 -10 -10 -5 0 -10 5 -10 10 0 6 5 10 10 10 6 0 10 -4 10 -10z m25
-20 c3 -5 1 -10 -4 -10 -6 0 -11 5 -11 10 0 6 2 10 4 10 3 0 8 -4 11 -10z m25
-30 c0 -5 -4 -10 -10 -10 -5 0 -10 5 -10 10 0 6 5 10 10 10 6 0 10 -4 10 -10z
m-940 -30 c0 -5 -4 -10 -10 -10 -5 0 -10 5 -10 10 0 6 5 10 10 10 6 0 10 -4
10 -10z m345 0 c3 -6 -1 -7 -9 -4 -18 7 -21 14 -7 14 6 0 13 -4 16 -10z m615
0 c0 -5 -5 -10 -11 -10 -5 0 -7 5 -4 10 3 6 8 10 11 10 2 0 4 -4 4 -10z m-925
-10 c3 -5 1 -10 -4 -10 -6 0 -11 5 -11 10 0 6 2 10 4 10 3 0 8 -4 11 -10z
m255 -10 c0 -5 -5 -10 -11 -10 -5 0 -7 5 -4 10 3 6 8 10 11 10 2 0 4 -4 4 -10z
m-210 -10 c0 -5 -2 -10 -4 -10 -3 0 -8 5 -11 10 -3 6 -1 10 4 10 6 0 11 -4 11
-10z m240 -5 c0 -9 6 -12 15 -9 8 4 15 1 15 -5 0 -15 -23 -14 -38 1 -15 15
-16 28 -2 28 6 0 10 -7 10 -15z m-190 -5 c0 -5 -4 -10 -10 -10 -5 0 -10 5 -10
10 0 6 5 10 10 10 6 0 10 -4 10 -10z m260 -31 c0 -4 -8 -7 -19 -6 -12 1 -17 7
-13 19 3 14 7 16 18 7 8 -6 14 -15 14 -20z m-116 10 c35 -10 38 -13 33 -39 -4
-16 -29 -90 -58 -164 -57 -150 -48 -142 -124 -110 -26 11 -31 18 -31 46 1 27
5 32 21 30 16 -3 17 -2 6 12 -12 14 -8 20 11 17 9 -1 21 57 13 69 -3 5 -1 10
5 10 6 0 8 5 5 10 -3 6 -1 10 4 10 6 0 11 7 11 16 0 9 8 23 18 30 10 8 12 13
5 14 -16 0 -17 30 -2 30 5 0 8 4 5 9 -6 9 8 19 29 20 6 1 27 -4 49 -10z m211
-23 c11 -8 16 -15 10 -15 -5 0 -23 11 -40 25 -31 26 -6 18 30 -10z m461 -50
c-4 -17 -21 -33 -47 -47 -47 -24 -58 -20 -35 13 15 21 20 18 17 -7 -1 -5 6 -1
14 10 17 21 14 42 -4 37 -7 -1 -9 2 -6 8 5 8 14 5 28 -7 20 -18 20 -17 14 5
-3 13 -3 31 0 40 10 25 27 -21 19 -52z m-490 43 c3 -5 -9 -9 -25 -9 -17 0 -31
4 -31 9 0 5 11 9 25 9 14 0 28 -4 31 -9z m-14 -70 c46 -34 98 -69 115 -77 28
-13 32 -19 26 -41 -6 -27 -102 -273 -109 -280 -2 -2 -16 1 -31 8 -34 16 -213
122 -213 126 0 2 11 35 25 73 14 39 22 78 19 88 -4 12 -3 15 3 7 5 -7 20 18
42 73 18 46 35 84 37 84 2 0 41 -28 86 -61z m18 41 c0 -5 -4 -10 -10 -10 -5 0
-10 5 -10 10 0 6 5 10 10 10 6 0 10 -4 10 -10z m42 -3 c9 -8 18 -20 20 -28 2
-7 10 -19 18 -26 12 -9 10 -11 -11 -10 -18 2 -25 6 -21 16 4 10 1 13 -12 8
-11 -5 -15 -3 -10 5 5 7 2 9 -8 6 -11 -5 -14 0 -10 18 5 27 10 29 34 11z m98
-87 c0 -5 -4 -10 -9 -10 -6 0 -13 5 -16 10 -3 6 1 10 9 10 9 0 16 -4 16 -10z
m129 -6 c10 -9 -35 -3 -49 6 -11 8 -7 9 15 4 17 -4 32 -8 34 -10z m-79 -15 c0
-5 4 -8 9 -5 12 8 41 -3 41 -15 0 -13 -43 -6 -58 9 -17 15 -36 16 -26 0 4 -7
3 -8 -5 -4 -6 4 -9 12 -6 17 8 13 45 11 45 -2z m250 -8 c0 -6 -4 -13 -10 -16
-5 -3 -10 1 -10 9 0 9 5 16 10 16 6 0 10 -4 10 -9z m-40 -9 c0 -15 -11 -21
-27 -15 -12 5 -12 7 -1 14 17 11 28 11 28 1z m-97 -16 c4 -10 0 -12 -14 -9
-22 6 -26 23 -5 23 8 0 16 -6 19 -14z m47 4 c0 -5 -7 -10 -15 -10 -8 0 -15 5
-15 10 0 6 7 10 15 10 8 0 15 -4 15 -10z m-81 -31 c30 -6 67 -9 83 -7 33 5 34
4 8 -24 -12 -14 -16 -24 -10 -28 12 -7 3 -40 -11 -40 -5 0 -9 -7 -9 -15 0 -8
-6 -14 -12 -12 -8 1 -13 -8 -12 -20 0 -13 -3 -23 -8 -23 -5 0 -4 -9 2 -20 6
-12 7 -20 1 -20 -5 0 -7 -13 -5 -29 4 -24 0 -30 -28 -42 -34 -14 -200 -20
-213 -7 -4 4 9 44 28 90 19 46 45 114 57 151 21 66 24 69 49 63 14 -3 50 -11
80 -17z m171 7 c0 -2 -7 -9 -15 -16 -13 -11 -14 -10 -9 4 5 14 24 23 24 12z
m-333 -108 c-3 -8 -6 -5 -6 6 -1 11 2 17 5 13 3 -3 4 -12 1 -19z m-417 -28 c0
-5 -2 -10 -4 -10 -3 0 -8 5 -11 10 -3 6 -1 10 4 10 6 0 11 -4 11 -10z m25 -10
c3 -5 1 -10 -4 -10 -6 0 -11 5 -11 10 0 6 2 10 4 10 3 0 8 -4 11 -10z m35 -20
c0 -5 -2 -10 -4 -10 -3 0 -8 5 -11 10 -3 6 -1 10 4 10 6 0 11 -4 11 -10z m50
-20 c-8 -5 -7 -9 4 -13 9 -4 16 -12 16 -18 0 -8 -7 -6 -18 4 -10 10 -24 17
-30 17 -7 0 -12 4 -12 9 0 5 12 9 26 9 15 0 21 -4 14 -8z m71 -45 c5 4 14 3
21 -1 18 -12 -24 -23 -44 -12 -10 5 -18 16 -18 24 0 14 2 14 16 0 8 -9 20 -14
25 -11z m59 -41 c0 -8 7 -14 15 -14 8 0 15 -5 15 -11 0 -17 -24 -4 -36 20 -7
14 -13 18 -16 10 -3 -8 -9 -9 -18 -4 -11 7 -10 10 6 15 23 9 34 4 34 -16z
m103 -41 c-4 -10 -2 -14 4 -10 6 4 17 0 24 -9 11 -13 9 -14 -16 -8 -20 5 -26
4 -21 -4 5 -8 1 -10 -9 -6 -12 5 -13 10 -6 17 6 6 11 16 11 22 0 5 -4 4 -9 -4
-5 -8 -14 -10 -22 -6 -9 6 -8 10 7 16 32 13 44 10 37 -8z m219 -25 c-7 -7 -12
-8 -12 -2 0 14 12 26 19 19 2 -3 -1 -11 -7 -17z m-40 -10 c-6 -6 -15 -8 -19
-4 -4 4 -1 11 7 16 19 12 27 3 12 -12z m-92 2 c0 -5 -7 -10 -15 -10 -8 0 -15
5 -15 10 0 6 7 10 15 10 8 0 15 -4 15 -10z m50 0 c0 -5 -7 -10 -15 -10 -8 0
-15 5 -15 10 0 6 7 10 15 10 8 0 15 -4 15 -10z"/>
<path d="M924 1530 c0 -11 1 -20 1 -20 0 0 8 9 18 20 16 19 16 20 -1 20 -11 0
-18 -8 -18 -20z"/>
<path d="M1120 1081 c0 -5 7 -15 17 -22 15 -13 15 -12 4 9 -12 23 -21 28 -21
13z"/>
<path d="M1511 718 c1 -7 -3 -26 -10 -42 -9 -23 -9 -32 0 -40 9 -8 10 -8 5 2
-4 6 -3 12 2 12 10 0 32 44 32 65 0 8 -7 15 -15 15 -9 0 -15 -6 -14 -12z"/>
<path d="M1140 591 c0 -5 7 -12 16 -15 14 -5 15 -4 4 9 -14 17 -20 19 -20 6z"/>
<path d="M1617 1058 c11 -13 23 -30 26 -38 3 -8 6 2 6 23 1 34 -1 37 -26 37
l-26 0 20 -22z"/>
</g>
</svg>
