<?xml version="1.0" standalone="no"?>
<!DOCTYPE svg PUBLIC "-//W3C//DTD SVG 20010904//EN"
 "http://www.w3.org/TR/2001/REC-SVG-20010904/DTD/svg10.dtd">
<svg version="1.0" xmlns="http://www.w3.org/2000/svg"
 width="200.000000pt" height="90.000000pt" viewBox="0 0 702.000000 164.000000"
 preserveAspectRatio="xMidYMid meet">

<g transform="translate(0.000000,164.000000) scale(0.100000,-0.100000)"
fill="#000000" stroke="none">
<path d="M297 1610 c-80 -25 -128 -59 -121 -85 4 -13 2 -16 -4 -7 -7 10 -12 9
-25 -5 -23 -27 -34 -60 -57 -184 -12 -61 -35 -152 -51 -201 -17 -50 -28 -97
-25 -105 3 -8 1 -11 -4 -8 -23 14 -7 -62 27 -127 69 -132 219 -245 371 -280
52 -11 53 -12 46 -42 -17 -82 -66 -202 -105 -258 -11 -14 -19 -30 -19 -36 0
-5 37 -21 83 -35 58 -19 114 -47 192 -98 177 -116 307 -152 415 -113 71 26 91
49 123 145 27 84 38 107 135 292 45 85 52 105 52 155 0 102 -61 170 -200 223
-28 10 -139 35 -248 54 -296 52 -397 87 -528 180 -58 42 -154 145 -154 166 0
14 31 26 85 33 59 8 174 -13 231 -42 53 -27 139 -119 209 -224 l58 -87 56 50
c31 28 91 73 134 101 42 28 77 55 77 60 0 42 -132 236 -221 326 -137 139 -368
205 -532 152z m93 -9 c0 -11 -49 -21 -55 -10 -5 6 4 10 48 18 4 0 7 -3 7 -8z
m30 -1 c0 -5 -4 -10 -10 -10 -5 0 -10 5 -10 10 0 6 5 10 10 10 6 0 10 -4 10
-10z m40 0 c0 -5 -4 -10 -10 -10 -5 0 -10 5 -10 10 0 6 5 10 10 10 6 0 10 -4
10 -10z m-140 -10 c0 -5 -4 -10 -10 -10 -5 0 -10 5 -10 10 0 6 5 10 10 10 6 0
10 -4 10 -10z m180 0 c0 -5 -7 -7 -15 -4 -8 4 -15 8 -15 10 0 2 7 4 15 4 8 0
15 -4 15 -10z m41 -3 c-1 -12 -15 -9 -19 4 -3 6 1 10 8 8 6 -3 11 -8 11 -12z
m-261 -7 c0 -5 -4 -10 -10 -10 -5 0 -10 5 -10 10 0 6 5 10 10 10 6 0 10 -4 10
-10z m313 -10 c4 -17 2 -18 -14 -9 -22 11 -25 29 -5 29 7 0 16 -9 19 -20z
m-71 -12 c35 -10 39 -14 33 -37 -8 -32 -75 -170 -86 -176 -4 -3 -36 -1 -71 4
-35 5 -84 6 -110 2 -47 -8 -48 -8 -43 18 2 14 19 63 36 108 30 76 35 82 63 86
67 8 141 6 178 -5z m108 2 c0 -5 -4 -10 -10 -10 -5 0 -10 5 -10 10 0 6 5 10
10 10 6 0 10 -4 10 -10z m-410 -15 c-7 -8 -17 -15 -22 -15 -11 0 14 29 26 30
5 0 3 -7 -4 -15z m458 -4 c1 -1 4 0 5 2 8 5 36 -26 32 -34 -6 -9 -75 20 -75
32 0 6 18 6 38 0z m-418 -15 c0 -11 -42 -96 -48 -96 -4 0 -7 -22 -7 -50 0 -38
-5 -53 -20 -64 -11 -8 -22 -12 -25 -9 -3 3 1 8 8 10 6 3 12 15 12 28 0 13 4
27 10 30 9 6 4 70 -7 88 -5 8 54 67 68 67 5 0 9 -2 9 -4z m421 -45 c68 -44
169 -136 158 -144 -2 -1 -38 -33 -80 -70 -43 -37 -80 -67 -84 -67 -3 0 -17 13
-30 28 -13 16 -51 43 -84 61 -34 18 -61 35 -61 39 0 4 8 21 18 37 10 17 31 60
47 98 15 37 31 67 35 67 4 0 41 -22 81 -49z m69 9 c0 -5 -4 -10 -10 -10 -5 0
-10 5 -10 10 0 6 5 10 10 10 6 0 10 -4 10 -10z m40 -32 c0 -13 -23 -5 -28 10
-2 7 2 10 12 6 9 -3 16 -11 16 -16z m24 -29 c-3 -5 -10 -7 -15 -3 -5 3 -7 10
-3 15 3 5 10 7 15 3 5 -3 7 -10 3 -15z m31 -19 c3 -5 -1 -10 -9 -10 -9 0 -16
5 -16 10 0 6 4 10 9 10 6 0 13 -4 16 -10z m25 -30 c0 -5 -4 -10 -10 -10 -5 0
-10 5 -10 10 0 6 5 10 10 10 6 0 10 -4 10 -10z m25 -29 c3 -5 1 -12 -4 -15 -5
-3 -11 1 -15 9 -6 16 9 21 19 6z m-585 -31 c0 -5 -4 -10 -10 -10 -5 0 -10 5
-10 10 0 6 5 10 10 10 6 0 10 -4 10 -10z m30 0 c0 -5 -4 -10 -10 -10 -5 0 -10
5 -10 10 0 6 5 10 10 10 6 0 10 -4 10 -10z m30 0 c0 -5 -4 -10 -10 -10 -5 0
-10 5 -10 10 0 6 5 10 10 10 6 0 10 -4 10 -10z m35 1 c3 -5 1 -12 -5 -16 -5
-3 -10 1 -10 9 0 18 6 21 15 7z m-125 -5 c0 -3 -4 -8 -10 -11 -5 -3 -10 -1
-10 4 0 6 5 11 10 11 6 0 10 -2 10 -4z m160 -17 c0 -11 -4 -17 -10 -14 -5 3
-10 13 -10 21 0 8 5 14 10 14 6 0 10 -9 10 -21z m480 11 c0 -5 -4 -10 -10 -10
-5 0 -10 5 -10 10 0 6 5 10 10 10 6 0 10 -4 10 -10z m-445 -10 c4 -6 11 -8 16
-5 5 4 12 -1 15 -9 3 -9 11 -13 16 -10 6 4 14 0 19 -7 6 -9 9 -10 9 -2 0 7 11
2 25 -11 30 -28 31 -35 6 -33 -11 0 -18 4 -16 8 5 7 -76 45 -88 41 -5 -1 -6 2
-2 8 3 5 -1 10 -9 10 -9 0 -16 5 -16 10 0 13 17 13 25 0z m465 -106 c29 -47
51 -86 49 -87 -2 -1 -42 -31 -88 -66 -73 -56 -85 -62 -93 -47 -5 10 -34 53
-63 97 l-53 79 80 70 c96 83 88 85 168 -46z m-736 92 c-10 -8 -21 -12 -24 -10
-5 6 21 24 34 24 6 0 1 -6 -10 -14z m736 -6 c0 -5 -4 -10 -10 -10 -5 0 -10 5
-10 10 0 6 5 10 10 10 6 0 10 -4 10 -10z m-830 -30 c11 -20 -7 -100 -22 -100
-4 0 -12 -18 -18 -40 -6 -22 -15 -40 -20 -40 -5 0 -1 22 10 49 10 27 22 72 26
100 4 28 8 51 10 51 2 0 8 -9 14 -20z m845 0 c3 -5 1 -10 -4 -10 -6 0 -11 5
-11 10 0 6 2 10 4 10 3 0 8 -4 11 -10z m-785 -14 c0 -3 -4 -8 -10 -11 -5 -3
-10 -1 -10 4 0 6 5 11 10 11 6 0 10 -2 10 -4z m810 -16 c0 -5 -4 -10 -10 -10
-5 0 -10 5 -10 10 0 6 5 10 10 10 6 0 10 -4 10 -10z m-355 -20 c-3 -5 -13 -6
-21 -3 -12 4 -13 8 -3 14 15 9 32 2 24 -11z m-393 -105 l48 -50 -33 -110 c-48
-159 -45 -157 -99 -96 -58 64 -102 152 -82 164 8 5 12 13 9 18 -9 13 15 120
25 114 17 -10 42 27 35 53 -6 23 -4 22 21 -9 15 -19 49 -57 76 -84z m-27 85
c3 -5 1 -10 -4 -10 -6 0 -11 5 -11 10 0 6 2 10 4 10 3 0 8 -4 11 -10z m445 0
c0 -5 -4 -10 -10 -10 -5 0 -10 5 -10 10 0 6 5 10 10 10 6 0 10 -4 10 -10z
m350 0 c0 -5 -2 -10 -4 -10 -3 0 -8 5 -11 10 -3 6 -1 10 4 10 6 0 11 -4 11
-10z m-323 -36 c-9 -9 -28 6 -21 18 4 6 10 6 17 -1 6 -6 8 -13 4 -17z m-447 6
c0 -5 -2 -10 -4 -10 -3 0 -8 5 -11 10 -3 6 -1 10 4 10 6 0 11 -4 11 -10z m790
-6 c0 -8 -4 -12 -10 -9 -5 3 -10 10 -10 16 0 5 5 9 10 9 6 0 10 -7 10 -16z
m-320 -24 c0 -5 -4 -10 -10 -10 -5 0 -10 5 -10 10 0 6 5 10 10 10 6 0 10 -4
10 -10z m-415 -20 c3 -5 -1 -10 -10 -10 -9 0 -13 5 -10 10 3 6 8 10 10 10 2 0
7 -4 10 -10z m435 -10 c0 -5 -4 -10 -10 -10 -5 0 -10 5 -10 10 0 6 5 10 10 10
6 0 10 -4 10 -10z m-410 -20 c0 -5 -2 -10 -4 -10 -3 0 -8 5 -11 10 -3 6 -1 10
4 10 6 0 11 -4 11 -10z m430 -10 c0 -5 -4 -10 -10 -10 -5 0 -10 5 -10 10 0 6
5 10 10 10 6 0 10 -4 10 -10z m-365 -30 c3 -5 1 -10 -4 -10 -6 0 -11 5 -11 10
0 6 2 10 4 10 3 0 8 -4 11 -10z m385 0 c0 -5 -4 -10 -10 -10 -5 0 -10 5 -10
10 0 6 5 10 10 10 6 0 10 -4 10 -10z m-350 -21 c0 -5 -4 -9 -8 -9 -5 0 -9 7
-9 15 0 8 4 12 9 9 4 -3 8 -9 8 -15z m-57 -17 c23 -15 76 -43 117 -62 41 -19
79 -37 83 -41 16 -12 -36 -174 -59 -183 -8 -3 -14 -12 -14 -21 0 -21 -25 -19
-108 9 -59 21 -102 42 -141 73 -4 3 72 253 77 253 2 0 22 -12 45 -28z m427 8
c0 -5 -4 -10 -10 -10 -5 0 -10 5 -10 10 0 6 5 10 10 10 6 0 10 -4 10 -10z
m-340 -20 c0 -5 -2 -10 -4 -10 -3 0 -8 5 -11 10 -3 6 -1 10 4 10 6 0 11 -4 11
-10z m360 -9 c0 -6 -4 -13 -10 -16 -5 -3 -10 1 -10 9 0 9 5 16 10 16 6 0 10
-4 10 -9z m-320 -5 c0 -3 -4 -8 -10 -11 -5 -3 -10 -1 -10 4 0 6 5 11 10 11 6
0 10 -2 10 -4z m35 -16 c3 -5 1 -10 -4 -10 -6 0 -11 5 -11 10 0 6 2 10 4 10 3
0 8 -4 11 -10z m85 -30 c0 -5 -4 -10 -10 -10 -5 0 -10 5 -10 10 0 6 5 10 10
10 6 0 10 -4 10 -10z m50 -20 c0 -5 -4 -10 -9 -10 -6 0 -13 5 -16 10 -3 6 1
10 9 10 9 0 16 -4 16 -10z m50 -10 c0 -5 -4 -10 -9 -10 -6 0 -13 5 -16 10 -3
6 1 10 9 10 9 0 16 -4 16 -10z m47 -16 c-9 -9 -28 6 -21 18 4 6 10 6 17 -1 6
-6 8 -13 4 -17z m58 14 c5 4 5 1 1 -5 -10 -18 -33 -16 -40 2 -4 12 -2 13 13 6
10 -6 22 -7 26 -3z m-12 -54 c62 -9 116 -20 121 -24 9 -9 -52 -220 -64 -220
-4 0 -41 22 -82 50 -83 55 -143 80 -194 80 l-34 0 15 38 c7 20 19 56 25 78
l10 42 46 -14 c25 -7 96 -21 157 -30z m47 36 c0 -5 -4 -10 -10 -10 -5 0 -10 5
-10 10 0 6 5 10 10 10 6 0 10 -4 10 -10z m40 -10 c0 -5 -4 -10 -10 -10 -5 0
-10 5 -10 10 0 6 5 10 10 10 6 0 10 -4 10 -10z m44 1 c3 -5 -3 -11 -15 -14
-16 -4 -18 -3 -8 9 13 16 16 17 23 5z m51 -11 c3 -5 -1 -10 -9 -10 -9 0 -16 5
-16 10 0 6 4 10 9 10 6 0 13 -4 16 -10z m45 -10 c0 -5 -4 -10 -10 -10 -5 0
-10 5 -10 10 0 6 5 10 10 10 6 0 10 -4 10 -10z m40 -4 c0 -11 -19 -15 -25 -6
-3 5 1 10 9 10 9 0 16 -2 16 -4z m30 -16 c0 -5 -4 -10 -10 -10 -5 0 -10 5 -10
10 0 6 5 10 10 10 6 0 10 -4 10 -10z m-950 -10 c0 -5 -2 -10 -4 -10 -3 0 -8 5
-11 10 -3 6 -1 10 4 10 6 0 11 -4 11 -10z m998 -9 c3 -8 -1 -12 -9 -9 -7 2
-15 10 -17 17 -3 8 1 12 9 9 7 -2 15 -10 17 -17z m-99 -11 c86 -24 138 -49
168 -82 21 -22 22 -25 7 -67 -24 -70 -44 -103 -59 -97 -7 2 -16 -1 -19 -9 -3
-10 0 -12 11 -8 13 5 15 2 10 -11 -4 -10 -7 -22 -7 -27 0 -5 -10 -4 -22 2 -20
11 -21 10 -11 -2 21 -26 -94 -5 -166 30 -35 17 -67 28 -72 26 -4 -3 -11 0 -15
7 -4 7 -4 10 1 6 6 -6 41 86 90 240 5 15 -3 16 84 -8z m149 -9 c3 -8 -1 -12
-9 -9 -7 2 -15 10 -17 17 -3 8 1 12 9 9 7 -2 15 -10 17 -17z m-978 -21 c0 -5
-4 -10 -10 -10 -5 0 -10 5 -10 10 0 6 5 10 10 10 6 0 10 -4 10 -10z m1010 0
c0 -5 -4 -10 -10 -10 -5 0 -10 5 -10 10 0 6 5 10 10 10 6 0 10 -4 10 -10z m25
-20 c3 -5 1 -10 -4 -10 -6 0 -11 5 -11 10 0 6 2 10 4 10 3 0 8 -4 11 -10z m25
-30 c0 -5 -4 -10 -10 -10 -5 0 -10 5 -10 10 0 6 5 10 10 10 6 0 10 -4 10 -10z
m-604 -26 c19 -15 19 -15 -1 -6 -11 5 -27 12 -35 15 -13 5 -13 6 1 6 8 1 24
-6 35 -15z m-336 -4 c0 -5 -4 -10 -10 -10 -5 0 -10 5 -10 10 0 6 5 10 10 10 6
0 10 -4 10 -10z m960 0 c0 -5 -5 -10 -11 -10 -5 0 -7 5 -4 10 3 6 8 10 11 10
2 0 4 -4 4 -10z m-920 -10 c0 -5 -4 -10 -10 -10 -5 0 -10 5 -10 10 0 6 5 10
10 10 6 0 10 -4 10 -10z m220 -10 c0 -5 -2 -10 -4 -10 -3 0 -8 5 -11 10 -3 6
-1 10 4 10 6 0 11 -4 11 -10z m-180 -10 c0 -5 -2 -10 -4 -10 -3 0 -8 5 -11 10
-3 6 -1 10 4 10 6 0 11 -4 11 -10z m240 -6 c0 -8 -5 -12 -10 -9 -6 4 -8 11 -5
16 9 14 15 11 15 -7z m-190 -4 c0 -5 -4 -10 -10 -10 -5 0 -10 5 -10 10 0 6 5
10 10 10 6 0 10 -4 10 -10z m220 -10 c0 -5 -4 -10 -10 -10 -5 0 -10 5 -10 10
0 6 5 10 10 10 6 0 10 -4 10 -10z m36 -27 c-4 -4 -11 -1 -16 7 -16 25 -11 35
7 17 9 -9 13 -20 9 -24z m-113 16 c20 -5 37 -16 37 -23 0 -17 -31 -108 -77
-224 -40 -100 -34 -97 -108 -66 -26 11 -31 18 -31 46 1 24 5 32 17 30 9 -1 16
4 16 13 0 8 -5 11 -11 8 -6 -3 -1 4 12 16 18 18 28 52 23 84 0 4 4 7 10 7 5 0
8 4 4 9 -3 6 5 19 17 30 12 12 17 21 11 21 -6 0 -13 9 -16 19 -3 15 -1 18 11
14 9 -4 13 -2 9 4 -7 11 6 21 28 22 6 1 27 -4 48 -10z m235 -43 c9 -11 -4 -5
-30 14 -27 18 -48 35 -48 37 0 8 62 -33 78 -51z m436 -33 c-9 -25 -79 -72 -90
-60 -3 3 0 14 7 26 9 14 17 17 25 10 9 -7 14 -4 19 11 4 11 11 17 17 14 7 -5
9 1 5 15 -3 13 -3 30 0 39 12 29 28 -25 17 -55z m-488 46 c3 -5 -9 -9 -25 -9
-17 0 -31 4 -31 9 0 5 11 9 25 9 14 0 28 -4 31 -9z m-14 -70 c46 -34 98 -69
116 -77 25 -12 31 -20 26 -36 -16 -59 -109 -286 -118 -286 -13 0 -134 67 -173
96 -17 13 -36 24 -42 24 -21 0 -20 21 4 88 14 39 22 78 19 88 -4 12 -3 15 3 7
5 -7 20 18 42 73 18 46 35 84 37 84 2 0 41 -28 86 -61z m539 38 c-10 -9 -11
-8 -5 6 3 10 9 15 12 12 3 -3 0 -11 -7 -18z m-521 3 c0 -5 -4 -10 -10 -10 -5
0 -10 5 -10 10 0 6 5 10 10 10 6 0 10 -4 10 -10z m36 -2 c4 -7 3 -8 -4 -4 -7
4 -12 3 -12 -2 0 -15 30 -23 31 -9 0 9 2 9 6 0 2 -7 3 -15 1 -17 -2 -3 6 -12
17 -20 11 -9 15 -16 9 -16 -6 0 -17 7 -24 15 -7 9 -19 14 -27 11 -9 -4 -11 -1
-7 6 5 7 2 9 -8 6 -11 -5 -14 0 -10 18 5 26 16 31 28 12z m104 -88 c0 -5 -4
-10 -9 -10 -6 0 -13 5 -16 10 -3 6 1 10 9 10 9 0 16 -4 16 -10z m129 -6 c10
-9 -35 -3 -49 6 -11 8 -7 9 15 4 17 -4 32 -8 34 -10z m-79 -14 c0 -5 3 -9 8
-9 20 3 42 -2 42 -11 0 -13 -42 -8 -58 8 -17 15 -36 16 -26 0 4 -7 3 -8 -5 -4
-6 4 -9 12 -6 17 8 12 45 12 45 -1z m242 -22 c-7 -7 -12 -8 -12 -2 0 14 12 26
19 19 2 -3 -1 -11 -7 -17z m-32 1 c0 -5 -9 -9 -20 -9 -11 0 -20 4 -20 8 0 4 9
8 20 9 11 1 20 -2 20 -8z m-97 -13 c4 -10 0 -12 -14 -9 -22 6 -26 23 -5 23 8
0 16 -6 19 -14z m47 4 c0 -5 -7 -10 -15 -10 -8 0 -15 5 -15 10 0 6 7 10 15 10
8 0 15 -4 15 -10z m-85 -31 c22 -4 58 -8 80 -9 27 0 35 -3 26 -9 -8 -5 -10
-14 -6 -21 5 -8 4 -11 -3 -6 -6 3 -13 2 -17 -4 -3 -5 -1 -10 4 -10 17 0 13
-30 -4 -36 -8 -4 -15 -12 -15 -20 0 -8 -6 -13 -12 -11 -8 1 -13 -8 -12 -20 0
-13 -3 -23 -8 -23 -5 0 -4 -9 2 -20 6 -12 7 -20 1 -20 -5 0 -7 -13 -5 -29 4
-24 0 -30 -28 -42 -34 -14 -200 -20 -213 -7 -4 4 9 44 28 90 19 46 45 114 57
152 l22 68 32 -7 c17 -4 49 -11 71 -16z m156 -12 c-10 -9 -11 -8 -5 6 3 10 9
15 12 12 3 -3 0 -11 -7 -18z m-314 -89 c-3 -8 -6 -5 -6 6 -1 11 2 17 5 13 3
-3 4 -12 1 -19z m-417 -28 c0 -5 -2 -10 -4 -10 -3 0 -8 5 -11 10 -3 6 -1 10 4
10 6 0 11 -4 11 -10z m30 -10 c0 -5 -4 -10 -10 -10 -5 0 -10 5 -10 10 0 6 5
10 10 10 6 0 10 -4 10 -10z m30 -20 c0 -5 -2 -10 -4 -10 -3 0 -8 5 -11 10 -3
6 -1 10 4 10 6 0 11 -4 11 -10z m49 -21 c-18 -11 -39 -11 -39 0 0 5 12 9 26 9
18 0 22 -3 13 -9z m19 -27 c2 -7 -2 -10 -12 -6 -9 3 -16 11 -16 16 0 13 23 5
28 -10z m38 -10 c4 4 16 2 28 -4 20 -11 20 -11 1 -19 -18 -8 -17 -9 5 -8 43 2
50 -1 44 -16 -4 -9 0 -15 10 -15 9 0 16 -5 16 -11 0 -17 -24 -4 -36 20 -7 14
-13 18 -16 10 -7 -21 -78 28 -78 54 0 7 4 6 10 -3 5 -8 12 -11 16 -8z m178
-86 c-3 -8 4 -16 17 -19 13 -4 20 -9 17 -12 -3 -4 -16 -2 -27 5 -14 7 -21 7
-21 0 0 -5 -5 -10 -12 -10 -9 0 -9 3 0 12 7 7 12 17 12 23 0 5 -4 4 -9 -4 -5
-8 -14 -10 -22 -6 -9 6 -8 10 7 16 30 12 44 10 38 -5z m218 -28 c-7 -7 -12 -8
-12 -2 0 14 12 26 19 19 2 -3 -1 -11 -7 -17z m-32 3 c0 -12 -20 -25 -27 -18
-7 7 6 27 18 27 5 0 9 -4 9 -9z m-100 -11 c0 -5 -7 -10 -15 -10 -8 0 -15 5
-15 10 0 6 7 10 15 10 8 0 15 -4 15 -10z m50 0 c0 -5 -7 -10 -15 -10 -8 0 -15
5 -15 10 0 6 7 10 15 10 8 0 15 -4 15 -10z"/>
<path d="M597 1494 c3 -9 9 -12 12 -7 3 4 10 11 15 16 5 4 0 7 -12 7 -15 0
-20 -4 -15 -16z"/>
<path d="M790 1042 c0 -5 7 -15 15 -22 8 -7 15 -8 15 -2 0 5 -7 15 -15 22 -8
7 -15 8 -15 2z"/>
<path d="M95 1209 c-4 -6 -5 -12 -2 -15 2 -3 7 2 10 11 7 17 1 20 -8 4z"/>
<path d="M1184 681 c3 -5 -1 -22 -9 -37 -18 -34 -19 -54 -4 -54 5 0 7 5 4 10
-3 6 -2 10 3 10 10 0 32 44 32 65 0 8 -7 15 -16 15 -8 0 -13 -4 -10 -9z"/>
<path d="M1280 1033 c0 -3 6 -14 14 -22 21 -24 219 -670 213 -697 -4 -23 -3
-24 68 -24 69 0 73 1 68 21 -6 20 75 299 86 299 11 0 93 -281 88 -300 -5 -19
0 -20 63 -20 68 0 69 0 68 27 0 36 200 673 218 694 21 23 17 29 -16 29 -26 0
-30 -3 -25 -22 6 -25 -198 -687 -207 -672 -3 5 -36 105 -72 222 l-67 214 31
101 c17 56 40 114 51 130 l20 27 -34 0 c-30 0 -34 -3 -30 -22 2 -13 -8 -61
-23 -108 l-27 -85 -29 90 c-15 49 -25 97 -22 107 5 16 -2 18 -66 18 l-71 0 20
-27 c18 -26 110 -306 114 -344 2 -29 -96 -330 -104 -317 -18 33 -199 631 -199
657 l0 31 -65 0 c-36 0 -65 -3 -65 -7z"/>
<path d="M2228 679 c2 -263 0 -365 -9 -375 -10 -12 0 -14 60 -14 68 0 71 1 61
19 -14 26 -14 697 0 706 23 14 6 22 -52 24 l-63 2 3 -362z"/>
<path d="M2398 679 c2 -263 0 -365 -9 -375 -10 -12 0 -14 60 -14 68 0 71 1 61
19 -6 11 -10 90 -10 185 l0 166 65 0 c40 0 78 -6 95 -15 l30 -16 0 40 0 39
-37 -19 c-24 -12 -58 -19 -96 -19 l-58 0 3 168 c2 92 7 175 12 185 7 15 2 17
-55 17 l-64 0 3 -361z"/>
<path d="M2645 1030 c126 -7 180 -23 223 -63 22 -20 24 -21 33 -4 24 41 181
85 200 55 14 -22 11 -702 -3 -716 -9 -9 4 -12 62 -12 58 0 71 3 62 12 -19 19
-17 701 2 717 10 9 31 9 74 2 62 -10 105 -31 122 -60 7 -12 9 -3 10 31 l0 48
-452 -2 c-289 -1 -410 -4 -333 -8z"/>
<path d="M3774 1024 c8 -22 9 -696 0 -717 -5 -14 0 -17 27 -17 26 0 30 3 21
12 -9 9 -12 97 -11 337 l1 326 112 -335 c94 -280 116 -335 131 -335 19 0 62
123 197 553 17 56 35 102 38 102 4 0 7 -141 6 -313 -1 -250 -4 -317 -15 -330
-12 -16 -7 -17 58 -17 68 0 71 1 61 19 -14 27 -14 675 0 702 12 21 11 21 -70
21 -60 0 -62 0 -55 -12 8 -12 -178 -591 -187 -582 -13 15 -189 572 -183 582 3
5 0 10 -7 11 -7 0 -39 3 -72 5 -51 4 -58 2 -52 -12z"/>
<path d="M4728 1030 c-141 -24 -256 -141 -288 -293 -34 -165 55 -345 203 -413
52 -24 75 -29 142 -29 71 0 88 4 147 33 257 126 274 502 30 656 -67 42 -154
59 -234 46z m129 -21 c61 -23 127 -105 159 -199 24 -72 25 -213 1 -291 -45
-150 -163 -240 -275 -210 -91 24 -156 98 -193 220 -67 228 54 491 227 491 29
0 65 -5 81 -11z"/>
<path d="M5160 1033 c0 -3 6 -14 14 -22 21 -25 219 -670 213 -697 -4 -23 -3
-24 68 -24 68 0 73 2 68 19 -7 26 192 667 218 704 l20 27 -35 0 c-29 0 -33 -3
-29 -20 7 -26 -198 -685 -208 -668 -18 33 -199 631 -199 657 l0 31 -65 0 c-36
0 -65 -3 -65 -7z"/>
<path d="M5788 1028 c17 -17 17 -709 0 -726 -9 -9 4 -12 60 -12 69 0 72 1 62
20 -13 24 -10 686 4 713 7 15 1 17 -65 17 -57 0 -70 -3 -61 -12z"/>
<path d="M5958 1028 c17 -17 17 -709 0 -726 -9 -9 45 -12 245 -12 l257 0 0 47
0 47 -29 -28 c-42 -40 -108 -56 -236 -56 -108 0 -113 1 -119 23 -3 12 -6 93
-6 180 l0 157 69 0 c54 0 74 -4 95 -21 l26 -20 0 44 0 45 -37 -19 c-24 -12
-58 -19 -95 -19 l-58 0 0 163 c0 120 4 168 13 181 12 17 26 18 133 14 126 -5
178 -19 222 -61 l23 -22 -3 45 -3 45 -255 3 c-200 2 -252 0 -242 -10z"/>
<path d="M6657 1026 c-91 -25 -157 -102 -157 -184 0 -98 39 -138 204 -207 155
-65 186 -94 186 -175 0 -127 -147 -203 -251 -129 -51 36 -77 117 -47 147 9 9
-4 12 -62 12 -70 0 -72 -1 -57 -18 10 -10 17 -23 17 -29 0 -20 83 -104 124
-126 34 -18 57 -22 136 -22 81 0 103 4 151 26 68 32 101 74 107 140 11 121
-36 182 -188 243 -134 53 -177 80 -200 126 -51 100 4 191 116 192 69 2 124
-51 111 -104 -5 -16 2 -18 58 -18 l63 0 -21 27 c-55 68 -87 91 -137 102 -64
14 -92 13 -153 -3z"/>
</g>
</svg>
