<?xml version="1.0" standalone="no"?>
<!DOCTYPE svg PUBLIC "-//W3C//DTD SVG 20010904//EN"
 "http://www.w3.org/TR/2001/REC-SVG-20010904/DTD/svg10.dtd">
<svg version="1.0" xmlns="http://www.w3.org/2000/svg"
 width="90.000000pt" height="90.000000pt" viewBox="0 0 999.000000 999.000000"
 preserveAspectRatio="xMidYMid meet">

<g transform="translate(0.000000,999.000000) scale(0.100000,-0.100000)"
fill="#000000" stroke="none">
<path d="M4095 7369 c-89 -12 -300 -75 -365 -110 -85 -45 -171 -119 -228 -196
-88 -119 -114 -193 -157 -458 -53 -320 -70 -391 -170 -692 -86 -258 -96 -316
-71 -395 52 -160 168 -352 302 -497 190 -206 515 -389 822 -462 124 -29 132
-33 132 -70 0 -129 -174 -577 -295 -760 -38 -57 -50 -91 -42 -112 6 -16 51
-33 217 -81 150 -44 344 -137 485 -232 253 -171 294 -198 355 -228 218 -110
435 -162 641 -154 172 7 329 68 418 163 45 48 52 62 96 201 71 227 105 325
130 374 13 25 43 86 66 135 23 50 47 97 54 105 7 8 29 47 50 85 20 39 52 95
71 126 18 30 59 109 91 174 l57 119 7 159 c5 114 3 173 -6 206 -27 103 -157
248 -299 335 -92 55 -119 67 -256 112 -160 53 -226 67 -685 143 -365 61 -525
90 -602 112 -18 5 -48 13 -65 18 -232 64 -307 93 -503 187 -84 40 -240 135
-294 180 -147 119 -244 215 -335 329 -94 119 -95 130 -19 168 134 68 443 61
683 -15 182 -58 381 -216 546 -432 89 -117 240 -341 300 -443 11 -19 23 -36
26 -37 4 0 53 43 110 96 161 151 338 285 520 393 54 31 100 66 103 76 32 101
-366 697 -642 960 -115 110 -179 153 -344 236 -162 80 -229 103 -452 157 -131
32 -161 36 -270 35 -67 -1 -149 -5 -182 -10z m155 -63 c0 -20 -20 -34 -41 -29
-24 7 -25 29 -2 41 20 12 43 5 43 -12z m108 -8 c-4 -27 -26 -34 -52 -15 -25
18 -12 37 25 37 26 0 30 -3 27 -22z m-200 -10 c3 -15 -4 -18 -47 -18 -27 0
-53 -4 -56 -10 -10 -16 -42 -12 -49 7 -9 22 12 34 46 27 15 -3 35 -1 45 5 25
15 57 9 61 -11z m312 7 c26 -31 -13 -45 -67 -24 -27 10 -27 11 -9 25 25 18 60
18 76 -1z m125 -19 c42 -30 -8 -60 -58 -35 -29 16 -28 14 -21 33 8 20 53 21
79 2z m-630 -16 c0 -18 -33 -26 -47 -12 -6 6 -7 15 -3 22 10 16 50 8 50 -10z
m-101 -16 c8 -21 -1 -34 -24 -34 -22 0 -34 15 -26 35 7 20 42 19 50 -1z m846
2 c6 -8 10 -23 8 -33 -1 -10 1 -25 6 -33 7 -12 6 -13 -5 -2 -7 6 -20 12 -29
12 -23 0 -60 34 -60 54 0 21 62 22 80 2z m-934 -37 c10 -17 -13 -36 -27 -22
-12 12 -4 33 11 33 5 0 12 -5 16 -11z m745 -29 c53 -16 102 -36 108 -44 9 -11
8 -24 -8 -58 -10 -23 -37 -88 -60 -143 -22 -55 -63 -143 -90 -195 -28 -52 -55
-104 -60 -115 -20 -45 -29 -46 -177 -24 -108 16 -161 19 -239 14 -55 -3 -122
-8 -150 -9 -27 -2 -59 -5 -70 -7 -17 -3 -20 1 -18 31 3 47 23 111 41 132 8 10
12 25 8 34 -6 15 8 54 44 124 10 19 32 78 49 131 17 53 38 102 45 108 8 7 63
21 123 32 59 10 113 21 118 24 6 3 62 3 125 0 91 -4 135 -11 211 -35z m307 12
c19 -25 -11 -45 -43 -30 -23 10 -39 41 -27 53 10 10 56 -5 70 -23z m-1120 -30
c2 -7 -6 -12 -17 -12 -21 0 -27 11 -14 24 9 9 26 2 31 -12z m1175 -24 c3 -10
7 -10 20 0 23 19 56 6 63 -25 l7 -26 18 21 c14 18 18 19 23 7 3 -8 11 -15 17
-15 21 0 38 -33 28 -52 -13 -25 -42 -22 -77 7 -17 14 -39 25 -51 25 -11 0 -25
9 -31 20 -6 11 -19 19 -28 18 -9 -2 -18 5 -20 15 -4 20 24 24 31 5z m-1239
-17 c3 -5 -1 -14 -8 -20 -16 -13 -32 2 -21 19 8 12 22 13 29 1z m1132 -37 c6
-8 19 -14 28 -14 9 0 16 -4 16 -9 0 -5 -22 -8 -50 -8 -58 1 -69 -6 -47 -31 10
-10 17 -24 17 -30 0 -17 20 -15 27 3 11 30 113 63 113 37 0 -4 14 -13 30 -20
17 -8 36 -19 43 -25 20 -19 70 -53 102 -70 17 -8 39 -24 50 -34 11 -10 49 -41
85 -69 69 -55 165 -152 193 -195 20 -29 14 -55 -13 -64 -10 -3 -35 -22 -56
-42 -123 -116 -316 -290 -345 -310 -23 -17 -46 -7 -64 26 -37 71 -188 181
-352 258 -51 24 -93 48 -93 54 0 5 27 56 60 111 33 56 60 107 60 113 0 6 13
38 28 71 16 32 48 107 72 167 39 95 46 106 65 101 11 -3 25 -12 31 -20z m-976
7 c0 -5 -13 -38 -28 -73 -16 -34 -37 -88 -46 -119 -19 -59 -32 -72 -85 -84
l-34 -7 7 34 c4 23 1 41 -10 56 -15 21 -15 25 0 41 9 10 16 22 16 27 0 13 54
63 109 103 44 31 71 39 71 22z m-220 -10 c0 -6 -4 -13 -10 -16 -5 -3 -10 1
-10 9 0 9 5 16 10 16 6 0 10 -4 10 -9z m1565 -67 c22 -23 15 -49 -14 -49 -32
0 -49 28 -32 49 17 20 26 20 46 0z m115 -89 c0 -16 -15 -35 -29 -35 -25 0 -61
29 -61 49 0 36 21 41 56 14 19 -14 34 -27 34 -28z m76 -56 c32 -36 -10 -75
-51 -45 -17 12 -18 17 -7 40 14 31 32 33 58 5z m74 -84 c16 -20 6 -45 -19 -45
-22 0 -46 34 -36 50 9 15 41 12 55 -5z m-1757 -46 c-4 -4 -15 -4 -23 1 -12 8
-12 12 5 28 20 19 20 19 23 -1 2 -10 0 -23 -5 -28z m1829 -26 c34 -30 13 -69
-27 -51 -27 12 -38 41 -22 57 15 15 27 14 49 -6z m-1823 -46 c-1 -62 -21 -129
-43 -141 -11 -6 -28 -19 -38 -29 -21 -20 -43 -18 -43 4 0 8 10 15 23 17 28 4
45 43 33 75 -7 18 -2 34 22 74 17 29 35 49 39 47 4 -3 8 -24 7 -47z m1896 -47
c20 -23 14 -50 -13 -50 -48 0 -58 63 -11 69 3 1 14 -8 24 -19z m-2007 -23
c-11 -21 -11 -21 -18 -2 -4 11 -3 23 3 27 19 12 28 -2 15 -25z m570 -71 c5
-25 -12 -39 -37 -31 -25 8 -26 18 -5 40 19 19 38 15 42 -9z m-178 -5 c0 -20
-25 -35 -41 -25 -5 3 -9 14 -9 25 0 14 7 19 25 19 18 0 25 -5 25 -19z m78 -3
c-3 -24 -17 -32 -36 -20 -18 12 -4 42 20 42 14 0 19 -6 16 -22z m196 6 c12
-31 6 -44 -18 -44 -30 0 -40 13 -31 40 8 24 40 27 49 4z m1414 -21 c3 -19 -1
-23 -21 -23 -24 0 -43 30 -29 45 14 14 47 -1 50 -22z m-1768 4 c0 -17 -20 -37
-37 -37 -7 0 -13 11 -13 25 0 20 5 25 25 25 14 0 25 -6 25 -13z m445 -6 c6
-21 -3 -51 -17 -51 -5 0 -6 -4 -3 -10 8 -13 2 -13 -28 3 -24 12 -24 15 -11 45
15 36 49 44 59 13z m102 -33 c15 -16 15 -21 3 -28 -39 -25 -94 0 -80 36 10 26
50 22 77 -8z m-641 -5 c-3 -3 -13 -2 -23 2 -17 7 -17 8 2 15 19 7 34 -5 21
-17z m1734 -12 c62 -64 320 -473 320 -506 0 -7 -15 -19 -32 -26 -18 -7 -60
-36 -94 -64 -33 -27 -104 -84 -158 -125 -53 -41 -109 -89 -123 -107 -39 -48
-62 -43 -100 23 -32 54 -41 84 -25 84 10 0 42 -38 42 -50 0 -5 5 -12 10 -15
22 -14 8 35 -22 76 l-32 44 -12 -30 c-11 -27 -13 -28 -20 -10 -8 20 -16 32
-44 63 -9 9 -22 31 -30 47 -8 17 -24 43 -35 59 -20 31 -24 35 -94 121 -23 27
-41 57 -41 65 0 14 141 152 255 250 28 23 63 53 79 67 39 35 97 73 109 73 6 0
27 -18 47 -39z m-1814 -19 c-4 -3 -12 0 -19 7 -9 9 -9 14 3 21 11 7 16 5 18
-6 2 -9 1 -18 -2 -22z m795 18 c27 -15 24 -47 -5 -52 -50 -10 -67 49 -18 61 2
1 12 -4 23 -9z m1202 -26 c5 -27 -11 -41 -38 -30 -15 5 -21 37 -8 49 16 16 41
6 46 -19z m-2069 -17 c-8 -22 -20 -22 -28 0 -7 18 14 37 27 24 4 -4 5 -15 1
-24z m956 -2 c6 -7 13 -21 14 -30 3 -23 21 -18 21 7 0 12 6 23 13 26 6 2 12
-4 12 -13 0 -22 55 -73 86 -81 25 -6 42 -44 29 -63 -9 -16 -41 -13 -55 3 -6 8
-18 12 -26 9 -8 -3 -14 1 -14 11 0 9 -11 21 -25 26 -14 5 -25 16 -25 23 0 8
-18 19 -40 26 -47 14 -55 24 -40 51 13 24 33 26 50 5z m-1169 -96 c23 -46 25
-79 4 -79 -10 0 -15 -10 -15 -30 0 -17 -6 -33 -13 -36 -8 -3 -14 -22 -14 -47
-1 -66 -3 -77 -10 -76 -30 5 -53 -30 -53 -77 0 -46 -68 -149 -86 -131 -2 2 10
41 27 88 17 46 37 104 45 128 8 24 18 49 23 55 5 6 11 34 15 61 8 70 16 134
22 173 4 29 7 32 20 21 9 -7 24 -30 35 -50z m99 31 c0 -5 -4 -10 -10 -10 -5 0
-10 5 -10 10 0 6 5 10 10 10 6 0 10 -4 10 -10z m2233 -5 c7 -18 -6 -27 -27
-19 -17 7 -20 16 -9 27 11 12 31 8 36 -8z m-2193 -49 c0 -2 -3 -11 -6 -20 -9
-23 -24 -20 -24 4 0 11 7 20 15 20 8 0 15 -2 15 -4z m2257 -50 c-6 -17 -22
-17 -42 -1 -20 15 -20 15 0 30 18 14 21 14 33 -2 7 -9 11 -22 9 -27z m-987
-26 c0 -31 -23 -40 -47 -20 -22 17 -33 48 -14 36 5 -3 14 1 21 9 15 18 40 3
40 -25z m-1230 -5 c0 -8 -4 -15 -9 -15 -13 0 -22 16 -14 24 11 11 23 6 23 -9z
m-4 -141 c23 -27 97 -105 164 -174 134 -137 128 -123 96 -230 -24 -78 -30
-101 -65 -230 -17 -63 -33 -126 -37 -140 -4 -14 -10 -29 -14 -35 -4 -5 -17
-39 -29 -75 -29 -87 -41 -110 -59 -110 -17 0 -146 128 -198 196 -33 42 -114
170 -114 180 0 3 -16 42 -35 86 l-36 80 26 24 c23 21 25 31 24 86 -3 101 40
296 62 282 6 -3 18 -2 27 2 9 4 26 8 37 8 14 1 21 9 23 26 2 14 11 33 19 43
14 14 14 23 5 56 -7 21 -12 42 -12 46 0 9 54 -47 116 -121z m1304 72 c0 -28
-26 -42 -46 -25 -17 14 -18 56 -1 62 21 8 47 -13 47 -37z m968 16 c2 -14 -2
-22 -11 -22 -19 0 -40 26 -32 40 11 18 40 6 43 -18z m-2200 -21 c3 -16 -1 -22
-10 -19 -7 3 -15 15 -16 27 -3 16 1 22 10 19 7 -3 15 -15 16 -27z m1296 -37
c32 -12 14 -64 -22 -64 -4 0 -13 9 -20 21 -10 16 -10 24 -1 35 13 16 20 17 43
8z m962 -30 c9 -36 -8 -49 -36 -26 -27 22 -22 52 9 52 14 0 23 -9 27 -26z
m-2178 -11 c3 -17 -2 -23 -16 -23 -18 0 -32 18 -32 42 0 21 45 3 48 -19z
m1287 -73 c0 -16 -6 -26 -19 -28 -25 -5 -39 12 -31 38 10 31 50 24 50 -10z
m-1231 14 c18 -7 12 -24 -10 -24 -8 0 -14 7 -14 15 0 17 2 18 24 9z m86 -95
c0 -12 -7 -19 -20 -19 -19 0 -28 28 -14 43 11 11 34 -5 34 -24z m1198 -1 c-2
-15 -10 -23 -23 -23 -13 0 -21 8 -23 23 -3 18 1 22 23 22 22 0 26 -4 23 -22z
m-1120 -60 c2 -19 -1 -28 -10 -28 -20 0 -38 21 -38 43 0 32 44 18 48 -15z
m1182 -18 c0 -8 -28 -40 -35 -40 -3 0 -9 9 -15 21 -16 28 4 53 31 38 10 -5 19
-14 19 -19z m-1097 -46 c-3 -8 -9 -14 -13 -14 -11 0 -21 30 -14 41 9 15 34
-10 27 -27z m1145 -42 c3 -16 -2 -22 -17 -22 -24 0 -35 15 -27 36 9 23 40 13
44 -14z m-1047 -8 c10 -13 10 -17 -2 -25 -20 -13 -34 -6 -37 19 -4 26 19 30
39 6z m-147 -57 c109 -81 404 -233 552 -285 102 -36 107 -39 101 -71 -16 -87
-100 -393 -118 -426 -14 -28 -33 -45 -60 -57 -30 -12 -39 -22 -39 -40 0 -40
-27 -69 -58 -62 -59 13 -261 76 -358 112 -111 42 -261 136 -270 170 -4 14 8
66 31 135 21 62 41 126 45 142 5 17 19 59 33 95 13 36 36 115 51 175 15 61 29
116 31 123 6 18 24 15 59 -11z m239 -1 c7 -18 -1 -26 -25 -26 -18 0 -25 20
-11 33 11 12 31 8 36 -7z m1012 -16 c0 -18 -6 -26 -22 -28 -18 -3 -23 1 -23
21 0 28 9 39 30 35 9 -2 15 -14 15 -28z m-917 -63 c5 -25 -28 -34 -44 -12 -21
28 -17 37 13 33 17 -2 29 -10 31 -21z m956 -3 c20 -8 21 -50 2 -57 -20 -8 -39
18 -31 43 7 22 7 22 29 14z m-874 -44 c0 -5 -5 -12 -11 -16 -12 -7 -31 15 -23
28 6 9 34 -1 34 -12z m118 -42 c3 -13 -3 -18 -22 -18 -20 0 -26 5 -26 21 0 15
5 20 22 17 13 -2 24 -11 26 -20z m117 -38 c0 -8 -8 -16 -18 -18 -21 -4 -49 16
-41 30 9 15 59 5 59 -12z m115 -41 c0 -15 -5 -20 -22 -17 -34 5 -37 38 -4 38
20 0 26 -5 26 -21z m-1493 -25 c-9 -9 -28 6 -21 18 4 6 10 6 17 -1 6 -6 8 -13
4 -17z m1628 -14 c0 -20 -5 -25 -24 -25 -31 0 -52 31 -31 45 27 18 55 7 55
-20z m148 -20 c13 -12 -11 -50 -32 -50 -10 0 -26 9 -37 21 -18 20 -18 21 1 35
18 13 50 11 68 -6z m182 -10 c-3 -5 -13 -6 -21 -3 -12 4 -13 8 -3 14 15 9 32
2 24 -11z m-49 -12 c7 -11 -14 -38 -30 -38 -7 0 -21 7 -32 15 -18 14 -18 16
-1 29 18 14 53 11 63 -6z m-1866 2 c0 -5 -7 -7 -15 -4 -8 4 -15 8 -15 10 0 2
7 4 15 4 8 0 15 -4 15 -10z m1978 -12 c25 -25 2 -55 -33 -42 -18 7 -20 40 -2
47 19 8 22 8 35 -5z m130 -40 c3 -13 -3 -18 -22 -18 -20 0 -26 5 -26 21 0 15
5 20 22 17 13 -2 24 -11 26 -20z m-613 -4 c142 -44 349 -84 575 -109 112 -12
245 -37 258 -48 15 -12 12 -36 -12 -122 -8 -27 -21 -75 -30 -105 -8 -30 -31
-100 -49 -155 -18 -55 -42 -128 -53 -163 -25 -83 -42 -92 -91 -50 -69 60 -222
160 -323 210 -25 13 -47 26 -50 29 -11 14 -77 42 -163 70 -73 23 -110 29 -179
29 -49 0 -88 4 -88 9 0 10 23 69 52 131 20 43 27 69 47 170 10 51 38 120 49
120 4 0 30 -7 57 -16z m730 1 c13 -4 13 -8 3 -25 -16 -25 -44 -26 -57 -2 -12
22 3 43 25 36 8 -2 21 -6 29 -9z m-2165 -20 c0 -8 -7 -15 -15 -15 -8 0 -15 7
-15 15 0 8 7 15 15 15 8 0 15 -7 15 -15z m2290 0 c29 -35 -15 -59 -54 -30 -15
12 -16 16 -5 29 18 20 43 20 59 1z m134 -21 c30 -30 9 -52 -39 -40 -35 9 -36
56 -1 56 14 0 32 -7 40 -16z m121 -45 c0 -8 -10 -15 -23 -17 -24 -4 -38 18
-28 44 6 15 9 15 29 1 12 -8 22 -21 22 -28z m99 5 c21 -8 2 -44 -23 -44 -24 0
-35 37 -12 43 9 3 17 5 18 6 1 0 8 -2 17 -5z m-2584 -18 c0 -11 -19 -15 -25
-6 -3 5 1 10 9 10 9 0 16 -2 16 -4z m1237 -28 c-3 -7 -5 -2 -5 12 0 14 2 19 5
13 2 -7 2 -19 0 -25z m1446 -1 c8 -22 -7 -37 -31 -30 -31 8 -30 43 2 43 13 0
26 -6 29 -13z m-2378 -37 c-5 -8 -11 -8 -17 -2 -6 6 -7 16 -3 22 5 8 11 8 17
2 6 -6 7 -16 3 -22z m-250 -10 c-5 -8 -11 -8 -21 1 -12 10 -12 14 -2 20 16 10
33 -5 23 -21z m2751 4 c10 -15 13 -29 8 -34 -14 -14 -59 13 -62 38 -5 32 33
29 54 -4z m-366 -18 c221 -43 453 -140 547 -229 73 -69 78 -79 62 -136 -6 -25
-15 -50 -19 -56 -4 -5 -11 -26 -15 -45 -11 -49 -77 -196 -95 -210 -4 -3 -9
-13 -13 -22 -8 -23 -43 -23 -55 -2 -11 20 -32 10 -32 -15 0 -10 -7 -24 -15
-31 -13 -10 -13 -15 -3 -21 7 -5 20 -1 30 8 9 8 24 13 33 10 17 -7 21 -42 5
-52 -5 -3 -13 -20 -18 -38 -5 -18 -15 -32 -23 -32 -8 0 -18 -5 -24 -12 -7 -9
-42 -9 -133 -3 -160 12 -221 32 -479 159 -18 8 -33 18 -33 22 0 4 -9 9 -20 12
-11 3 -25 17 -32 31 -10 23 -7 37 20 104 36 89 82 225 82 242 0 7 7 26 15 43
19 43 75 211 75 229 0 22 30 58 48 58 9 0 51 -6 92 -14z m500 -14 c26 -21 21
-62 -7 -62 -22 0 -53 29 -53 50 0 34 26 40 60 12z m-2830 -38 c0 -8 -4 -12
-10 -9 -5 3 -10 10 -10 16 0 5 5 9 10 9 6 0 10 -7 10 -16z m2931 -57 c-10 -27
-44 -29 -49 -3 -5 25 26 50 44 35 8 -7 10 -18 5 -32z m-2868 8 c7 -16 -8 -29
-23 -20 -15 9 -12 35 4 35 8 0 16 -7 19 -15z m77 -25 c0 -28 -2 -30 -20 -20
-30 16 -25 50 7 50 8 0 13 -12 13 -30z m2864 -35 c6 -18 -29 -41 -39 -25 -10
16 2 40 19 40 7 0 16 -7 20 -15z m-2786 -32 c2 -8 -5 -13 -17 -13 -21 0 -35
13 -24 24 10 10 36 3 41 -11z m2852 -47 c0 -25 -15 -37 -37 -28 -14 4 -18 34
-6 45 3 4 15 7 25 7 12 0 18 -7 18 -24z m-2780 4 c13 -9 13 -11 0 -20 -8 -5
-18 -10 -22 -10 -11 0 -20 19 -13 30 8 12 16 12 35 0z m74 -46 c22 -8 20 -34
-2 -34 -24 0 -32 8 -25 26 6 16 6 16 27 8z m976 -14 c0 -12 -17 -12 -45 0 -17
7 -15 9 13 9 17 1 32 -3 32 -9z m54 -16 c9 -3 14 -10 11 -14 -6 -10 -45 -1
-45 11 0 10 12 11 34 3z m1730 -10 c8 -21 -1 -34 -25 -34 -20 0 -23 8 -13 34
8 21 30 21 38 0z m-2656 -27 c3 -23 0 -28 -15 -25 -11 2 -19 14 -21 31 -3 23
0 28 15 25 11 -2 19 -14 21 -31z m977 -5 c-3 -3 -11 0 -18 7 -9 10 -8 11 6 5
10 -3 15 -9 12 -12z m-866 -11 c12 -21 5 -31 -20 -31 -22 0 -33 16 -25 35 8
21 33 19 45 -4z m609 -18 c-5 -26 -38 -29 -38 -4 0 15 6 21 21 21 14 0 19 -5
17 -17z m-88 -3 c0 -5 -7 -10 -15 -10 -8 0 -15 5 -15 10 0 6 7 10 15 10 8 0
15 -4 15 -10z m178 -13 c2 -11 -3 -17 -16 -17 -26 0 -34 11 -20 27 14 17 32
12 36 -10z m-578 -2 c6 -8 9 -19 5 -25 -14 -23 -62 -2 -52 24 8 20 31 21 47 1z
m660 -10 c9 -10 10 -22 4 -35 -9 -19 -10 -19 -34 -1 -20 16 -22 21 -11 35 17
20 25 20 41 1z m1800 -25 c0 -23 -18 -36 -32 -22 -7 7 -6 17 2 31 13 24 30 19
30 -9z m-2321 -9 c8 -14 7 -22 -4 -31 -26 -21 -72 20 -48 43 13 14 42 7 52
-12z m599 0 c8 -4 12 -19 10 -32 -2 -18 -8 -23 -23 -21 -11 2 -26 4 -33 4 -7
1 -10 8 -7 15 3 8 5 21 5 29 0 15 27 19 48 5z m1632 -5 c0 -3 -4 -8 -10 -11
-5 -3 -10 -1 -10 4 0 6 5 11 10 11 6 0 10 -2 10 -4z m-1548 -38 c38 -35 40
-58 5 -58 -25 0 -60 52 -51 75 8 19 6 20 46 -17z m-302 -13 c89 -25 120 -42
120 -67 0 -23 -79 -275 -105 -333 -7 -16 -36 -93 -64 -170 -51 -136 -74 -199
-92 -240 -5 -11 -18 -46 -29 -77 -12 -32 -23 -58 -25 -58 -2 0 -53 20 -112 44
-59 24 -119 47 -133 51 -14 4 -28 13 -32 19 -12 17 -9 71 4 84 9 9 9 15 0 24
-21 21 -13 52 23 83 20 18 35 39 35 53 0 20 9 26 35 23 16 -1 37 68 42 137 3
34 9 62 14 62 5 0 9 13 9 29 0 16 6 31 15 35 8 3 15 12 15 19 0 18 29 77 48
100 14 15 13 19 -1 35 -10 10 -17 35 -17 55 0 32 3 36 28 39 18 2 27 9 27 21
0 11 15 27 35 38 38 20 75 19 160 -6z m465 15 c3 -5 1 -10 -4 -10 -6 0 -11 5
-11 10 0 6 2 10 4 10 3 0 8 -4 11 -10z m65 -30 c0 -5 6 -10 13 -10 16 -1 95
-80 79 -80 -16 0 -61 29 -87 56 -11 11 -29 26 -40 32 -19 11 -18 11 8 12 15 0
27 -4 27 -10z m-285 -20 c3 -5 -1 -10 -10 -10 -9 0 -13 5 -10 10 3 6 8 10 10
10 2 0 7 -4 10 -10z m1605 -16 c0 -8 7 -22 15 -30 39 -40 1 -174 -58 -202 -15
-7 -39 -24 -53 -37 -33 -30 -122 -61 -136 -47 -11 11 16 72 38 85 8 4 14 17
14 27 0 11 3 20 6 20 9 0 34 -28 34 -39 0 -15 16 -22 35 -15 13 5 15 14 11 35
-3 16 -1 29 4 29 6 0 10 9 10 20 0 11 7 20 15 20 8 0 15 -4 15 -10 0 -16 27
-12 34 6 3 8 -1 28 -9 44 -17 33 -20 70 -5 70 6 0 10 9 10 20 0 11 5 20 10 20
6 0 10 -7 10 -16z m-1423 -23 c11 -15 12 -14 18 2 10 25 40 21 59 -7 15 -24
15 -25 -7 -32 -32 -10 -98 -6 -113 7 -8 6 -14 22 -14 36 0 21 3 23 22 17 13
-4 28 -14 35 -23z m-96 -94 c41 -29 100 -73 133 -97 119 -91 273 -193 343
-227 40 -20 74 -43 76 -52 3 -16 -34 -151 -58 -206 -30 -71 -39 -95 -71 -184
-19 -52 -46 -121 -60 -155 -46 -105 -52 -120 -59 -146 -18 -63 -59 -140 -77
-146 -13 -4 -30 1 -47 13 -14 11 -57 35 -96 55 -113 57 -286 158 -340 198 -27
21 -79 52 -114 70 -74 37 -73 21 -8 200 25 69 68 189 95 266 28 78 60 161 71
185 11 24 36 88 56 142 43 119 52 137 69 137 8 0 47 -24 87 -53z m336 47 c-3
-3 -12 -4 -19 -1 -8 3 -5 6 6 6 11 1 17 -2 13 -5z m-151 -12 c31 -21 21 -78
-12 -65 -23 8 -47 60 -31 66 18 8 31 8 43 -1z m107 -27 c18 -25 11 -35 -10
-14 -9 9 -14 5 -19 -15 -3 -15 -5 -29 -3 -31 2 -2 23 2 46 8 39 10 44 9 63
-13 21 -25 27 -50 10 -50 -5 0 -10 -4 -10 -10 0 -5 11 -10 25 -10 32 0 70 -33
62 -54 -8 -20 -53 -21 -64 -2 -13 23 -85 76 -94 70 -5 -3 -14 7 -19 21 -6 15
-15 23 -21 19 -6 -3 -15 0 -20 7 -10 16 -12 83 -2 92 13 14 39 6 56 -18z
m1084 -27 c-3 -8 -6 -5 -6 6 -1 11 2 17 5 13 3 -3 4 -12 1 -19z m-1147 -63 c0
-8 -4 -15 -10 -15 -5 0 -10 7 -10 15 0 8 5 15 10 15 6 0 10 -7 10 -15z m270
-79 c0 -30 -15 -42 -24 -20 -10 27 -7 44 9 44 9 0 15 -9 15 -24z m-165 -6 c3
-5 1 -10 -4 -10 -6 0 -11 5 -11 10 0 6 2 10 4 10 3 0 8 -4 11 -10z m245 -62
c25 -27 21 -42 -12 -46 -18 -2 -32 5 -47 24 -11 14 -18 30 -15 35 10 17 53 9
74 -13z m240 2 c0 -5 -7 -7 -15 -4 -8 4 -15 8 -15 10 0 2 7 4 15 4 8 0 15 -4
15 -10z m-347 -31 c-17 -17 -37 -1 -22 17 8 10 15 12 23 4 7 -7 7 -13 -1 -21z
m447 0 c0 -11 -25 -11 -59 -2 -22 6 -23 7 -6 13 23 8 65 1 65 -11z m393 4 c-7
-2 -19 -2 -25 0 -7 3 -2 5 12 5 14 0 19 -2 13 -5z m-596 -32 c11 -11 34 -19
60 -19 75 -3 119 -31 91 -59 -13 -12 -19 -12 -52 4 -30 14 -41 15 -56 5 -26
-16 -28 -16 -32 11 -2 15 -9 21 -23 20 -25 -2 -75 27 -75 44 0 20 66 16 87 -6z
m778 10 c3 -5 1 -12 -5 -16 -5 -3 -10 1 -10 9 0 18 6 21 15 7z m-79 -36 c7
-18 -13 -45 -33 -45 -23 0 -28 31 -8 46 24 18 34 18 41 -1z m-108 -39 c5 -22
-14 -36 -48 -36 -47 0 -70 45 -27 53 43 9 72 3 75 -17z m-283 -26 c0 -20 -6
-26 -26 -28 -28 -3 -59 20 -59 44 0 12 10 14 43 12 37 -3 42 -6 42 -28z m143
6 c6 -28 -13 -39 -52 -32 -26 5 -36 12 -36 26 0 33 82 39 88 6z m-1468 -7 c0
-11 -4 -18 -10 -14 -5 3 -7 12 -3 20 7 21 13 19 13 -6z m1055 -44 c65 -30 371
-71 464 -63 42 4 52 -17 17 -33 -14 -7 -26 -19 -26 -28 0 -9 -12 -27 -25 -40
-29 -27 -31 -37 -10 -45 8 -3 15 -17 15 -31 0 -14 -7 -28 -15 -31 -8 -4 -15
-14 -15 -24 0 -12 -9 -20 -22 -22 -17 -2 -22 -9 -20 -24 3 -21 -23 -52 -35
-41 -3 4 -15 -3 -25 -16 -16 -17 -19 -31 -14 -65 4 -32 2 -44 -9 -48 -21 -8
-19 -63 3 -87 16 -19 16 -20 0 -14 -10 3 -20 2 -23 -2 -4 -8 9 -102 21 -141 5
-20 -105 -73 -201 -96 -103 -25 -328 -25 -417 0 -82 23 -84 30 -35 132 19 38
43 96 55 130 12 34 33 88 47 120 14 32 39 102 55 154 56 181 108 322 121 331
16 10 49 4 94 -16z m635 -21 c0 -16 -43 -74 -50 -69 -10 6 -2 35 10 35 4 0 10
9 13 20 5 18 27 29 27 14z m-893 -301 c-3 -10 -5 -2 -5 17 0 19 2 27 5 18 2
-10 2 -26 0 -35z m-1340 -19 c-3 -3 -12 -4 -19 -1 -8 3 -5 6 6 6 11 1 17 -2
13 -5z m51 -5 c-2 -6 -8 -10 -13 -10 -5 0 -11 4 -13 10 -2 6 4 11 13 11 9 0
15 -5 13 -11z m319 -21 c-3 -8 -6 -5 -6 6 -1 11 2 17 5 13 3 -3 4 -12 1 -19z
m-179 -36 c4 -28 -23 -30 -38 -3 -7 14 -6 21 3 24 20 9 32 2 35 -21z m75 -24
c7 -22 -4 -36 -24 -31 -25 7 -25 43 0 43 11 0 21 -6 24 -12z m78 -38 c27 -15
24 -40 -5 -40 -24 0 -41 23 -30 41 7 11 11 11 35 -1z m103 -69 c14 -26 14 -30
0 -35 -27 -11 -83 32 -69 54 13 22 54 11 69 -19z m66 5 c0 -2 -9 -6 -20 -9
-11 -3 -20 -1 -20 4 0 5 9 9 20 9 11 0 20 -2 20 -4z m27 -61 c21 -15 22 -55 1
-55 -20 0 -58 33 -58 51 0 23 27 25 57 4z m62 -31 c-14 -18 -24 -11 -15 11 3
9 11 13 16 10 8 -5 7 -11 -1 -21z m67 -52 c9 -12 14 -12 31 -2 16 11 24 10 46
-5 15 -9 24 -22 20 -28 -4 -6 -10 -4 -18 6 -11 15 -14 15 -34 -4 -15 -14 -30
-19 -45 -15 -30 7 -76 44 -76 60 0 17 62 8 76 -12z m118 -65 c24 -18 18 -63
-8 -59 -21 4 -76 42 -76 53 0 7 21 13 56 18 5 0 18 -5 28 -12z m70 -5 c7 -11
-4 -52 -14 -52 -9 0 -19 47 -12 55 8 8 20 6 26 -3z m146 -94 c0 -12 -28 -10
-35 2 -4 6 -4 19 0 28 6 16 8 15 21 -2 8 -11 14 -23 14 -28z m-75 16 c19 -19
16 -48 -6 -52 -8 -1 -26 6 -39 18 -12 11 -27 20 -32 20 -18 0 -7 19 15 23 41
8 45 7 62 -9z m213 -38 c1 -2 -1 -14 -6 -27 -13 -35 -5 -51 18 -37 24 16 73 0
78 -25 5 -25 -27 -33 -60 -14 -37 21 -58 22 -58 2 0 -9 -9 -15 -25 -15 -14 0
-25 4 -25 10 0 5 11 17 25 26 28 18 34 61 10 70 -27 11 -16 27 12 19 16 -4 29
-8 31 -9z m-86 -8 c9 -7 19 -23 22 -34 5 -17 1 -23 -19 -28 -20 -5 -31 -1 -45
16 -23 27 -25 44 -7 51 21 9 33 8 49 -5z m791 -28 c-3 -11 -7 -20 -9 -20 -2 0
-4 9 -4 20 0 11 4 20 9 20 5 0 7 -9 4 -20z m-73 -28 c0 -23 -19 -42 -42 -42
-23 0 -24 36 0 49 26 16 42 13 42 -7z m-117 -26 c10 -24 -16 -48 -48 -44 -35
4 -49 43 -18 51 36 9 61 7 66 -7z m-298 -6 c7 0 15 -9 18 -20 9 -37 -66 -41
-80 -4 -7 18 15 36 35 29 8 -3 19 -5 27 -5z m158 -20 c9 -33 -49 -54 -72 -26
-19 23 -2 46 34 46 24 0 34 -5 38 -20z"/>
<path d="M5660 6106 c0 -8 5 -18 10 -21 6 -3 10 1 10 9 0 8 -4 18 -10 21 -5 3
-10 -1 -10 -9z"/>
<path d="M5220 5852 c0 -14 29 -36 37 -28 3 3 1 6 -5 6 -7 0 -11 5 -9 11 1 6
-4 14 -10 16 -7 3 -13 0 -13 -5z"/>
<path d="M3340 6185 c0 -8 5 -15 10 -15 6 0 10 7 10 15 0 8 -4 15 -10 15 -5 0
-10 -7 -10 -15z"/>
<path d="M3352 5870 c0 -14 2 -19 5 -12 2 6 2 18 0 25 -3 6 -5 1 -5 -13z"/>
<path d="M6360 4784 c0 -8 4 -23 9 -32 7 -13 1 -29 -20 -60 -16 -24 -29 -50
-29 -59 0 -9 -5 -31 -12 -49 -9 -26 -9 -36 1 -48 20 -24 44 -20 38 5 -4 15 0
23 14 26 12 4 22 17 26 34 3 16 9 29 14 29 5 0 9 7 9 16 0 9 8 39 18 66 l17
50 -24 19 c-28 23 -61 25 -61 3z"/>
<path d="M6200 4230 c0 -5 5 -10 10 -10 6 0 10 5 10 10 0 6 -4 10 -10 10 -5 0
-10 -4 -10 -10z"/>
<path d="M4330 3950 c0 -5 7 -10 15 -10 8 0 15 5 15 10 0 6 -7 10 -15 10 -8 0
-15 -4 -15 -10z"/>
<path d="M5396 4365 c4 -8 8 -15 10 -15 2 0 4 7 4 15 0 8 -4 15 -10 15 -5 0
-7 -7 -4 -15z"/>
</g>
</svg>
