<svg id="visual" viewBox="0 0 1920 1080" width="1920" height="1080" xmlns="http://www.w3.org/2000/svg" xmlns:xlink="http://www.w3.org/1999/xlink" version="1.1"><rect x="0" y="0" width="1920" height="1080" fill="#fce33d"></rect><path d="M0 821L45.7 818C91.3 815 182.7 809 274.2 795.7C365.7 782.3 457.3 761.7 548.8 781C640.3 800.3 731.7 859.7 823 858.7C914.3 857.7 1005.7 796.3 1097 790C1188.3 783.7 1279.7 832.3 1371.2 842C1462.7 851.7 1554.3 822.3 1645.8 795.2C1737.3 768 1828.7 743 1874.3 730.5L1920 718L1920 1081L1874.3 1081C1828.7 1081 1737.3 1081 1645.8 1081C1554.3 1081 1462.7 1081 1371.2 1081C1279.7 1081 1188.3 1081 1097 1081C1005.7 1081 914.3 1081 823 1081C731.7 1081 640.3 1081 548.8 1081C457.3 1081 365.7 1081 274.2 1081C182.7 1081 91.3 1081 45.7 1081L0 1081Z" fill="#001122" stroke-linecap="round" stroke-linejoin="miter"></path></svg>